# xmcd
#
# Track frame offsets: 
#        150
#        13860
#        29048
#        42968
#        57421
#        72346
#        86709
#        100509
#        114842
#        130105
#        144513
#        159903
#        173688
#        187121
#        200149
#        212802
#        227840
#        241745
#        256430
#        271730
#        285898
#        300208
#
# Disc length: 4194 seconds
#
# Revision: 0
# Processed by: cddbd v1.5.2PL0 Copyright (c) Steve Scherf et al.
# Submitted via: ExactAudioCopyFreeDBPlugin 1.0
#
DISCID=2e106016
DTITLE=Blind Willie Johnson - The Rough Guide To Blues Legends - Blind
DTITLE=Willie Johnson [CD1]
DYEAR=2013
DGENRE=Blues
TTITLE0=God Moves On The Water
TTITLE1=Dark Was The Night, Cold Was The Ground
TTITLE2=Keep Your Lamp Trimmed And Burning
TTITLE3=Jesus Make Up My Dying Bed
TTITLE4=John The Revelator
TTITLE5=It's Nobody's Fault But Mine
TTITLE6=I Know His Blood Can Make Me Whole
TTITLE7=Let Your Light Shine On Me
TTITLE8=Mother's Children Have Hard Time
TTITLE9=You're Gonna Need Somebody On Your Bond
TTITLE10=I'm Gonna Run To The City Of Refugee
TTITLE11=Lord I Just Can't Keep From Crying
TTITLE12=God Don't Never Change
TTITLE13=Bye And Bye I'm Going To See The King
TTITLE14=Sweeter As The Years Roll By
TTITLE15=The Rain Don't Fall On Me
TTITLE16=When The War Was On
TTITLE17=The Soul Of A Man
TTITLE18=Can't Nobody Hide From God
TTITLE19=Trouble Soon Be Over
TTITLE20=If I Had My Way I'd Tear The Building Down
TTITLE21=Jesus Is Coming Soon
EXTD=
EXTT0=
EXTT1=
EXTT2=
EXTT3=
EXTT4=
EXTT5=
EXTT6=
EXTT7=
EXTT8=
EXTT9=
EXTT10=
EXTT11=
EXTT12=
EXTT13=
EXTT14=
EXTT15=
EXTT16=
EXTT17=
EXTT18=
EXTT19=
EXTT20=
EXTT21=
PLAYORDER=
